HIERARCHY
ROOT Hips
{
	OFFSET 0.000000 0.000000 0.000000
	CHANNELS 6 Xposition Yposition Zposition Xrotation Yrotation Zrotation
	JOINT LeftUpLeg_virtual
	{
		OFFSET 0.000000 0.000000 0.000000
		CHANNELS 3 Xrotation Yrotation Zrotation
		JOINT LeftUpLeg
		{
			OFFSET 11.394100 -6.187798 -0.413800
			CHANNELS 3 Xrotation Yrotation Zrotation
			JOINT LeftLeg
			{
				OFFSET 0.430247 -32.302673 3.732800
				CHANNELS 3 Xrotation Yrotation Zrotation
				JOINT LeftFoot
				{
					OFFSET -0.430247 -48.264931 -6.423300
					CHANNELS 3 Xrotation Yrotation Zrotation
					JOINT LeftToeBase
					{
						OFFSET 4.230900 -16.068199 23.438400
						CHANNELS 3 Xrotation Yrotation Zrotation
						JOINT LeftToe_End
						{
							OFFSET 4.510700 0.695400 19.974600
							CHANNELS 3 Xrotation Yrotation Zrotation
							End Site
							{
								OFFSET 0 0 0
							}
						}
					}
				}
			}
		}
	}
	JOINT RightUpLeg_virtual
	{
		OFFSET 0.000000 0.000000 0.000000
		CHANNELS 3 Xrotation Yrotation Zrotation
		JOINT RightUpLeg
		{
			OFFSET -11.333700 -6.187798 -0.413800
			CHANNELS 3 Xrotation Yrotation Zrotation
			JOINT RightLeg
			{
				OFFSET -0.430392 -32.302628 3.733000
				CHANNELS 3 Xrotation Yrotation Zrotation
				JOINT RightFoot
				{
					OFFSET 0.430392 -48.264973 -6.423500
					CHANNELS 3 Xrotation Yrotation Zrotation
					JOINT RightToeBase
					{
						OFFSET -4.230900 -16.068199 23.438400
						CHANNELS 3 Xrotation Yrotation Zrotation
						JOINT RightToe_End
						{
							OFFSET -4.510700 0.695400 19.974600
							CHANNELS 3 Xrotation Yrotation Zrotation
							End Site
							{
								OFFSET 0 0 0
							}
						}
					}
				}
			}
		}
	}
	JOINT Spine_virtual
	{
		OFFSET 0.000000 0.000000 0.000000
		CHANNELS 3 Xrotation Yrotation Zrotation
		JOINT Spine
		{
			OFFSET -0.002400 12.777504 0.315300
			CHANNELS 3 Xrotation Yrotation Zrotation
			JOINT Spine1
			{
				OFFSET -0.002067 5.816869 0.032633
				CHANNELS 3 Xrotation Yrotation Zrotation
				JOINT Spine1_split
				{
					OFFSET -0.002067 5.816869 0.032633
					CHANNELS 3 Xrotation Yrotation Zrotation
					JOINT Spine2
					{
						OFFSET -0.002067 5.816869 0.032633
						CHANNELS 3 Xrotation Yrotation Zrotation
						JOINT Neck_virtual
						{
							OFFSET 0.000000 0.000000 0.000000
							CHANNELS 3 Xrotation Yrotation Zrotation
							JOINT Neck
							{
								OFFSET -0.003700 21.199493 -0.826900
								CHANNELS 3 Xrotation Yrotation Zrotation
								JOINT Head
								{
									OFFSET 0.000000 20.442200 4.834800
									CHANNELS 3 Xrotation Yrotation Zrotation
									JOINT HeadTop_End
									{
										OFFSET 0.000000 34.668396 4.968400
										CHANNELS 3 Xrotation Yrotation Zrotation
										End Site
										{
											OFFSET 0 0 0
										}
									}
								}
							}
						}
						JOINT LeftShoulder_virtual
						{
							OFFSET 0.000000 0.000000 0.000000
							CHANNELS 3 Xrotation Yrotation Zrotation
							JOINT LeftShoulder
							{
								OFFSET 3.288150 8.794197 -1.372250
								CHANNELS 3 Xrotation Yrotation Zrotation
								JOINT LeftShoulder_split
								{
									OFFSET 3.288150 8.794197 -1.372250
									CHANNELS 3 Xrotation Yrotation Zrotation
									JOINT LeftArm
									{
										OFFSET 11.953299 -2.279007 -0.146200
										CHANNELS 3 Xrotation Yrotation Zrotation
										JOINT LeftForeArm
										{
											OFFSET 18.448900 0.000000 0.000000
											CHANNELS 3 Xrotation Yrotation Zrotation
											JOINT LeftHand
											{
												OFFSET 29.527798 0.000000 0.000000
												CHANNELS 3 Xrotation Yrotation Zrotation
												End Site
												{
													OFFSET 0 0 0
												}
											}
										}
									}
								}
							}
						}
						JOINT RightShoulder_virtual
						{
							OFFSET 0.000000 0.000000 0.000000
							CHANNELS 3 Xrotation Yrotation Zrotation
							JOINT RightShoulder
							{
								OFFSET -3.249400 8.794197 -1.372250
								CHANNELS 3 Xrotation Yrotation Zrotation
								JOINT RightShoulder_split
								{
									OFFSET -3.249400 8.794197 -1.372250
									CHANNELS 3 Xrotation Yrotation Zrotation
									JOINT RightArm
									{
										OFFSET -11.953299 -2.279007 -0.146200
										CHANNELS 3 Xrotation Yrotation Zrotation
										JOINT RightForeArm
										{
											OFFSET -18.448900 0.000000 0.000000
											CHANNELS 3 Xrotation Yrotation Zrotation
											JOINT RightHand
											{
												OFFSET -29.527802 0.000000 0.000000
												CHANNELS 3 Xrotation Yrotation Zrotation
												End Site
												{
													OFFSET 0 0 0
												}
											}
										}
									}
								}
							}
						}
					}
				}
			}
		}
	}
}
MOTION
Frames: 10
Frame Time: 0.03333333
-2.054169 68.843437 -82.975525 0.000000 0.000000 0.000000 39.117709 -69.836266 28.784043 -81.331646 -24.798675 25.486815 41.108098 -9.309289 8.573218 21.882692 -4.245553 -22.163440 -4.790799 1.129082 2.217230 0.000000 0.000000 0.000000 40.120794 -70.509723 30.221231 -8.097362 -0.390619 -32.984507 31.139976 -0.400434 -3.540932 7.974476 -26.588139 41.092539 -2.566066 0.771362 -4.403998 0.000000 0.000000 0.000000 38.127202 -66.543999 27.604541 1.576119 10.440532 -3.199559 -2.685855 4.989072 0.303713 0.972146 -2.999550 1.410717 0.000000 0.000000 0.000000 -1.388147 3.094229 0.679372 10.532802 5.158580 -6.209458 5.032528 18.385066 9.652225 0.000000 0.000000 0.000000 -2.137573 3.572435 0.679283 3.330545 3.562593 -13.151107 3.751387 0.646977 1.755074 -51.206540 -31.765031 -49.825438 -2.851770 -77.334134 -0.890404 0.000000 0.000000 0.000000 -2.417236 3.231166 0.708694 -13.680938 -1.214782 -1.022771 -1.469849 -1.658047 -1.299702 -106.081335 35.373010 120.698609 -2.986723 28.856856 2.701096 0.000000 0.000000 0.000000 
-1.395934 70.517525 -89.020493 0.000000 0.000000 0.000000 42.390449 -70.812608 31.765062 -79.913247 -21.292310 25.961542 37.405995 -7.299463 8.152411 23.536048 -2.106922 -19.021404 -5.471415 1.000689 0.786224 0.000000 0.000000 0.000000 40.103295 -71.229311 30.467261 -13.666369 -1.910982 -28.873026 41.130918 -0.975703 -1.959981 -0.805895 -26.947968 37.038456 -0.082267 0.724844 -5.102096 0.000000 0.000000 0.000000 39.324100 -67.484072 28.774665 1.557457 9.418936 -2.889904 -2.733061 4.379359 0.487981 0.712123 -1.972755 1.212203 0.000000 0.000000 0.000000 -1.340462 2.451733 0.919924 10.664750 5.559271 -6.264061 4.644593 19.336231 8.980487 0.000000 0.000000 0.000000 -2.167137 2.958915 0.937150 3.304665 3.537805 -13.003068 4.749463 1.015773 1.562928 -50.029544 -31.656738 -49.786092 -2.713207 -78.333841 -0.731514 0.000000 0.000000 0.000000 -2.478398 2.550926 0.950377 -13.870097 -1.731876 -1.777825 -0.748868 -1.133799 -1.735822 -105.789057 35.243489 120.709209 -3.275811 28.988091 2.924674 0.000000 0.000000 0.000000 
-0.789408 72.635239 -94.466415 0.000000 0.000000 0.000000 44.601760 -71.143039 33.630100 -81.488473 -17.582900 25.340413 37.185954 -5.428657 6.982502 24.440625 -0.961235 -14.859676 -5.594109 0.943208 -0.616795 0.000000 0.000000 0.000000 40.262951 -71.592301 30.787194 -17.468615 -4.587098 -23.951757 48.368780 -1.259357 -0.511087 -9.477757 -26.875374 33.199279 0.994968 0.555397 -4.639327 0.000000 0.000000 0.000000 40.997398 -68.092260 29.837524 1.426654 8.376991 -2.471025 -2.735632 3.601619 0.708641 0.649723 -0.840562 0.871940 0.000000 0.000000 0.000000 -1.365143 1.613505 1.182233 10.742856 5.881850 -6.276264 3.944283 20.390362 8.270058 0.000000 0.000000 0.000000 -2.200933 2.187878 1.210613 3.284385 3.422047 -12.658898 5.519367 1.771138 1.353362 -49.204010 -31.876247 -49.648088 -1.874673 -78.841898 0.011349 0.000000 0.000000 0.000000 -2.525288 1.737063 1.212189 -14.107177 -2.312875 -2.574930 -0.194585 -0.690067 -2.235647 -106.111592 35.162599 121.223604 -3.575033 27.909751 3.060120 0.000000 0.000000 0.000000 
-0.433244 74.942505 -98.935013 0.000000 0.000000 0.000000 45.308104 -70.709725 34.071272 -84.836557 -14.247749 23.902548 39.494387 -4.067860 5.313498 24.584487 -0.637051 -10.717180 -4.880779 0.917334 -1.532994 0.000000 0.000000 0.000000 40.047045 -71.289164 30.665367 -19.187149 -7.679063 -19.479566 51.327109 -1.363254 0.498773 -15.982579 -26.303251 30.676992 0.132695 0.277143 -3.261887 0.000000 0.000000 0.000000 42.512843 -68.415375 30.543141 1.199931 7.449978 -2.058357 -2.685907 2.874105 0.887014 0.610226 0.326821 0.589201 0.000000 0.000000 0.000000 -1.465254 0.816405 1.353827 10.738740 6.070033 -6.265736 3.072496 21.333932 7.751495 0.000000 0.000000 0.000000 -2.240605 1.457750 1.405893 3.276578 3.325624 -12.149565 6.019479 2.912355 1.138716 -48.819433 -32.153057 -49.378316 -0.737460 -78.963831 0.971751 0.000000 0.000000 0.000000 -2.543885 0.997054 1.394796 -14.360217 -2.969526 -3.258829 0.192109 -0.440577 -2.554487 -106.913115 35.268973 122.318443 -3.750001 26.291427 3.048209 0.000000 0.000000 0.000000 
-0.188435 77.218910 -102.152115 0.000000 0.000000 0.000000 44.549158 -69.786549 33.210374 -88.500892 -11.725206 21.915891 42.964704 -3.489022 3.695348 24.432481 -1.068713 -7.981134 -3.981751 0.876606 -1.584951 0.000000 0.000000 0.000000 40.091346 -70.658389 30.703992 -19.150939 -10.456389 -15.947252 50.343388 -1.899212 1.146462 -20.670137 -25.811461 28.466126 -0.674403 -0.122657 -1.725255 0.000000 0.000000 0.000000 43.798035 -68.744973 31.231457 0.962815 6.714422 -1.730542 -2.600868 2.365201 0.986936 0.669495 1.422926 0.641786 0.000000 0.000000 0.000000 -1.623697 0.252084 1.379167 10.630056 6.142968 -6.222893 2.230316 21.987789 7.512662 0.000000 0.000000 0.000000 -2.296724 0.932298 1.481338 3.265086 3.254246 -11.627950 6.238281 4.186110 0.998152 -48.723113 -32.293729 -48.927179 0.044392 -78.829057 1.549255 0.000000 0.000000 0.000000 -2.540425 0.492948 1.460674 -14.571217 -3.673084 -3.646900 0.380672 -0.334513 -2.576543 -107.783063 35.601391 123.840933 -3.715511 24.892585 2.889033 0.000000 0.000000 0.000000 
-0.155658 78.964081 -104.169128 0.000000 0.000000 0.000000 43.081842 -68.716074 31.858775 -91.518360 -10.091039 19.897555 46.382684 -3.339638 2.505545 24.268019 -1.686809 -6.745224 -3.453315 0.835021 -1.057286 0.000000 0.000000 0.000000 40.681112 -69.796426 31.080212 -18.381002 -12.540973 -13.726908 46.874222 -2.859740 1.641449 -23.953596 -25.502794 26.279904 -0.154581 -0.427407 -0.701127 0.000000 0.000000 0.000000 44.176745 -69.079119 31.553684 0.811113 6.231706 -1.545354 -2.524233 2.118699 1.012911 0.875527 2.105186 0.745812 0.000000 0.000000 0.000000 -1.805815 -0.002009 1.290568 10.520067 6.091613 -6.107937 1.589751 22.259843 7.575995 0.000000 0.000000 0.000000 -2.387738 0.668692 1.450939 3.242693 3.199601 -11.173818 6.227895 5.206037 0.962614 -48.692125 -32.248065 -48.324015 0.140494 -78.614999 1.455204 0.000000 0.000000 0.000000 -2.502074 0.278263 1.437855 -14.704993 -4.363914 -3.753470 0.357915 -0.495160 -2.264177 -108.442394 36.094517 125.408612 -3.471576 24.171228 2.624502 0.000000 0.000000 0.000000 
-0.282218 80.124496 -105.128235 0.000000 0.000000 0.000000 41.926402 -67.949509 30.958710 -93.578680 -9.301573 18.280913 49.127505 -3.270932 1.944084 24.475267 -2.257297 -6.949542 -3.061861 0.780934 -0.482228 0.000000 0.000000 0.000000 41.268235 -68.785954 31.297515 -17.756236 -13.911781 -12.842590 43.915323 -3.875098 2.097682 -26.156850 -25.325949 24.242496 1.312604 -0.566403 -0.558211 0.000000 0.000000 0.000000 42.745318 -69.366780 30.732641 0.928796 5.903060 -1.538782 -2.467821 2.073304 0.987310 0.905270 2.045846 1.189128 0.000000 0.000000 0.000000 -1.933757 0.003405 1.184343 10.543266 5.980894 -5.867032 1.235957 22.034264 7.912206 0.000000 0.000000 0.000000 -2.472206 0.631181 1.362906 3.232128 3.242914 -10.876223 6.011844 5.736800 0.994303 -48.601263 -32.096971 -47.697673 -0.389915 -78.387397 0.763731 0.000000 0.000000 0.000000 -2.432843 0.306530 1.388826 -14.765494 -4.943273 -3.649671 0.178235 -0.824342 -1.802880 -108.774225 36.586714 126.540920 -3.127237 24.105940 2.327195 0.000000 0.000000 0.000000 
-0.426273 80.707932 -105.556641 0.000000 0.000000 0.000000 41.419841 -67.765626 30.728772 -94.522394 -9.182792 17.409362 50.959054 -3.215627 1.870643 25.033933 -2.769765 -7.957377 -2.962876 0.685297 -0.046581 0.000000 0.000000 0.000000 41.359736 -68.111862 31.147507 -17.653703 -14.329686 -12.823490 43.272073 -4.322062 2.436501 -27.199379 -25.093113 22.809302 2.235326 -0.514043 -1.176022 0.000000 0.000000 0.000000 40.291781 -69.439378 29.124234 1.310289 5.677614 -1.585961 -2.460495 2.104437 0.962999 1.065194 1.275141 1.449884 0.000000 0.000000 0.000000 -1.971583 0.144792 1.148366 10.787715 5.859920 -5.498964 1.202166 21.327380 8.381496 0.000000 0.000000 0.000000 -2.518952 0.708242 1.266050 3.239463 3.256701 -10.711687 5.642675 5.769602 1.064866 -48.496447 -31.852440 -47.157033 -1.301288 -78.123581 -0.273387 0.000000 0.000000 0.000000 -2.358002 0.468748 1.386137 -14.754351 -5.338971 -3.455106 -0.079168 -1.052341 -1.437225 -108.836134 36.972063 126.984446 -2.804326 24.202538 2.086938 0.000000 0.000000 0.000000 
-0.639613 80.814560 -105.854294 0.000000 0.000000 0.000000 40.972430 -68.154769 30.652328 -94.558689 -9.467978 17.236150 51.785282 -2.871016 2.126111 25.496695 -2.962133 -8.566818 -2.896519 0.562298 -0.027684 0.000000 0.000000 0.000000 40.730952 -67.971112 30.528395 -18.065919 -13.716801 -13.164816 44.704459 -3.951831 2.635588 -27.202444 -24.653356 22.337456 2.341320 -0.340896 -1.711534 0.000000 0.000000 0.000000 37.277871 -69.170692 26.778510 1.841396 5.559138 -1.548307 -2.532691 2.120485 0.981040 1.362161 0.260979 1.236701 0.000000 0.000000 0.000000 -1.935136 0.281090 1.203660 11.252482 5.804266 -5.055591 1.425941 20.300968 8.852811 0.000000 0.000000 0.000000 -2.538566 0.779176 1.198971 3.266468 3.223106 -10.628737 5.346639 5.551721 1.124067 -48.439094 -31.523420 -46.771636 -2.157539 -77.837976 -1.221239 0.000000 0.000000 0.000000 -2.312613 0.636676 1.447777 -14.694754 -5.578631 -3.322921 -0.347148 -1.200901 -1.252990 -108.890482 37.217650 126.829100 -2.609681 24.147029 2.007497 0.000000 0.000000 0.000000 
-0.769548 80.796165 -105.712524 0.000000 0.000000 0.000000 39.615316 -68.985232 29.738937 -94.187311 -10.245104 17.325482 52.199246 -2.407238 2.790068 26.181182 -3.139177 -8.930391 -2.444991 0.416301 -0.507619 0.000000 0.000000 0.000000 39.582101 -68.528750 29.540268 -18.593016 -12.198047 -13.184603 46.638304 -3.267281 2.620190 -26.948262 -24.033257 22.348867 2.763867 -0.147145 -1.385741 0.000000 0.000000 0.000000 35.152036 -68.999404 24.896314 2.314522 5.563310 -1.331733 -2.657698 2.122234 1.028749 1.803274 -0.693996 1.012279 0.000000 0.000000 0.000000 -1.879251 0.330346 1.294853 11.824084 5.937891 -4.623530 1.813353 19.267762 9.133031 0.000000 0.000000 0.000000 -2.560156 0.780973 1.165861 3.298438 3.142271 -10.625302 5.144901 5.322196 1.255711 -48.462111 -31.098999 -46.583540 -2.666206 -77.495080 -1.784435 0.000000 0.000000 0.000000 -2.366285 0.713367 1.528746 -14.604246 -5.733499 -3.258193 -0.550417 -1.164010 -1.229503 -109.096002 37.410777 126.520170 -2.578809 23.961501 2.121774 0.000000 0.000000 0.000000 
